<svg xmlns="http://www.w3.org/2000/svg" data-name="Layer 1" viewBox="0 0 130 130" id="exe-file"><polygon fill="#576d7e" points="11.74 62.72 11.74 73.89 23.02 73.89 22.67 65.72 11.74 62.72"></polygon><path fill="#435460" d="M24.7,55.77H18.5a6.76,6.76,0,1,0,0,13.51h6.2a.18.18,0,0,0,.18-.17V55.94A.18.18,0,0,0,24.7,55.77Z"></path><path fill="#e5e6e8" d="M118.3,34V118a11,11,0,0,1-11,11H33.17a11,11,0,0,1-11-11V12a11,11,0,0,1,11-11H85.35Z"></path><rect width="67.24" height="39.93" x="22.17" y="72.59" fill="#cdd1d4"></rect><path fill="#cdd1d4" d="M85.35,26.29a11,11,0,0,0,11,11h22V34L85.35,4.32Z" opacity=".35"></path><path fill="#576d7e" d="M89.41,109.21H18.22a6.53,6.53,0,0,1-6.53-6.53l.05-33.4H89.41Z"></path><path fill="#cdd1d4" d="M85.35,23a11,11,0,0,0,11,11h22l-33-33Z"></path><path fill="#fff" d="M29.6 98.59V79.9H43.46v3.16H33.37v4.15h9.38v3.15H33.37v5.08H43.81v3.15zM45.11 98.59l6.39-9.75L45.71 79.9h4.41l3.75 6 3.68-6h4.37L56.1 89l6.39 9.61H57.94L53.8 92.13l-4.16 6.46zM64.43 98.59V79.9H78.29v3.16H68.21v4.15h9.38v3.15H68.21v5.08H78.65v3.15z"></path></svg>