<svg id="exe-file" xmlns="http://www.w3.org/2000/svg" viewBox="0 0 106.87 128"><defs><style>.cls-1{fill:#576d7e;}.cls-2{fill:#435460;}.cls-3{fill:#343449;}.cls-4{fill:#2b2b3e;isolation:isolate;opacity:0.35;}.cls-5{fill:#51516c;}.cls-6{fill:#fff;}</style></defs><polygon class="cls-1" points="0.26 61.72 0.26 72.89 11.54 72.89 11.19 64.72 0.26 61.72"/><path class="cls-2" d="M24.7,55.77H18.5A6.76,6.76,0,0,0,18,69.28a4.51,4.51,0,0,0,.52,0h6.2a.18.18,0,0,0,.18-.17V55.94A.18.18,0,0,0,24.7,55.77Z" transform="translate(-11.48 -1)"/><path class="cls-3" d="M118.3,34v84a11,11,0,0,1-11,11H33.17a11,11,0,0,1-11-11V12a11,11,0,0,1,11-11H85.35Z" transform="translate(-11.48 -1)"/><rect class="cls-3" x="10.69" y="71.59" width="67.24" height="39.93"/><path class="cls-4" d="M85.35,26.29a11,11,0,0,0,11,11h22V34l-33-29.68Z" transform="translate(-11.48 -1)"/><path class="cls-1" d="M89.41,109.21H18.22a6.53,6.53,0,0,1-6.53-6.53l.05-33.4H89.41Z" transform="translate(-11.48 -1)"/><path class="cls-5" d="M85.35,23a11,11,0,0,0,11,11h22l-33-33Z" transform="translate(-11.48 -1)"/><path class="cls-6" d="M29.6,98.59V79.9H43.46v3.16H33.37v4.15h9.38v3.15H33.37v5.08H43.81v3.15Zm15.51,0,6.39-9.75L45.71,79.9h4.41l3.75,6,3.68-6h4.37L56.1,89l6.39,9.61H57.94L53.8,92.13l-4.16,6.46Zm19.32,0V79.9H78.29v3.16H68.21v4.15h9.38v3.15H68.21v5.08H78.65v3.15Z" transform="translate(-11.48 -1)"/></svg>