<svg id="Layer_1" data-name="Layer 1" xmlns="http://www.w3.org/2000/svg" viewBox="0 0 516.37 168.28"><defs><style>.cls-1{fill:#ebebeb;}.cls-2,.cls-3{fill:#ef305e;}.cls-3{opacity:0.5;}</style></defs><path class="cls-1" d="M12.32,183.48a25.36,25.36,0,0,1-9.2-9.2,24.64,24.64,0,0,1-3.4-12.7v-12h14.4v11.2a10.64,10.64,0,0,0,3.2,7.75,10.44,10.44,0,0,0,7.7,3.25h31.8a6.27,6.27,0,0,0,4.75-1.95A6.79,6.79,0,0,0,63.42,165v-15.4h14.4V165a22.5,22.5,0,0,1-2.75,11,21.2,21.2,0,0,1-7.55,8,20.1,20.1,0,0,1-10.7,2.95H25A24.71,24.71,0,0,1,12.32,183.48Zm11.2-46.8h12.8v12.9H23.52Zm18,0h12.8v12.9H41.52Z" transform="translate(0.28 -47)"/><path class="cls-1" d="M94.72,184.33A18.95,18.95,0,0,1,85.42,168v-48.5h14.4v47.6a4.63,4.63,0,0,0,1.3,3.35,4.25,4.25,0,0,0,3.2,1.35h5.5a.89.89,0,0,1,1,1v13.1a.89.89,0,0,1-1,1h-5.6A18.25,18.25,0,0,1,94.72,184.33Z" transform="translate(0.28 -47)"/><path class="cls-1" d="M108.82,185.88v-13.1a.88.88,0,0,1,1-1h5.4a4.38,4.38,0,0,0,3.25-1.4,4.62,4.62,0,0,0,1.35-3.3v-20.5h14.3V168a18.95,18.95,0,0,1-9.3,16.35,18.3,18.3,0,0,1-9.5,2.55h-5.5A.89.89,0,0,1,108.82,185.88Zm.9,9.5h12.9v12.8h-12.9Z" transform="translate(0.28 -47)"/><path class="cls-1" d="M233.22,172.78v13.1a.89.89,0,0,1-1,1h-4.3a12.58,12.58,0,0,1-7.61-2.2A31.88,31.88,0,0,1,208.67,199a30.88,30.88,0,0,1-17.86,5.45,31.19,31.19,0,0,1-16.09-4.35A32.52,32.52,0,0,1,163,188.38a31.13,31.13,0,0,1-4.35-16.1v-18.7H173v17.9a17.23,17.23,0,0,0,2.4,8.9,17.85,17.85,0,0,0,6.5,6.5,17.29,17.29,0,0,0,8.89,2.4,18,18,0,0,0,15.61-8.9,17.32,17.32,0,0,0,2.39-8.9v-21.9h14.5v17.5a4.56,4.56,0,0,0,1.36,3.35,4.41,4.41,0,0,0,3.25,1.35h4.3A.89.89,0,0,1,233.22,172.78ZM197,140.28v12.8h-12.9v-12.8Z" transform="translate(0.28 -47)"/><path class="cls-1" d="M231.21,185.88v-13.1a.89.89,0,0,1,1-1H243a4.36,4.36,0,0,0,3.25-1.4,4.62,4.62,0,0,0,1.35-3.3v-20.5h14.3V168a18.95,18.95,0,0,1-9.3,16.35,18.25,18.25,0,0,1-9.5,2.55h-10.9A.89.89,0,0,1,231.21,185.88Zm1.1,9.6h12.8v12.8h-12.8Zm18,0h12.9v12.8h-12.9Z" transform="translate(0.28 -47)"/><path class="cls-1" d="M290.77,196.38a19.33,19.33,0,0,0,6-4.5,8.05,8.05,0,0,0,1.59-5h-6.5a22.8,22.8,0,0,1-11-2.7,20.94,20.94,0,0,1-7.95-7.45,19.84,19.84,0,0,1-2.94-10.65,21.3,21.3,0,0,1,2.94-11,22.11,22.11,0,0,1,7.95-8,21.24,21.24,0,0,1,11-2.95,19.85,19.85,0,0,1,10.61,2.95,20.7,20.7,0,0,1,7.5,8,22.77,22.77,0,0,1,2.7,11v14.6q0,9.3-2.85,15a26.15,26.15,0,0,1-9.21,10A123.44,123.44,0,0,1,282,215.28l-4.5-12.7Q286.41,198.77,290.77,196.38Zm7.54-30.4a6.58,6.58,0,0,0-1.84-4.8,6.23,6.23,0,0,0-4.66-1.9,6.64,6.64,0,0,0-4.84,1.9,6.88,6.88,0,0,0,0,9.6,6.68,6.68,0,0,0,4.84,1.9h6.5Z" transform="translate(0.28 -47)"/><path class="cls-2" d="M515.29,123" transform="translate(0.28 -47)"/><path class="cls-2" d="M515.29,123" transform="translate(0.28 -47)"/><path class="cls-2" d="M515.89,199" transform="translate(0.28 -47)"/><polyline class="cls-2" points="453.15 0 423.23 0 360.41 164.54 387.93 164.54"/><polyline class="cls-2" points="498.82 36.28 474.89 36.28 491.64 73.18 516.37 73.18"/><polyline class="cls-2" points="458.34 163.67 482.1 163.67 515.37 76.19 492.4 76.19"/><polyline class="cls-3" points="430.74 104.4 417.36 121.87 455.61 162.72 464.9 138.86"/><polyline class="cls-2" points="381.54 164.54 357.78 164.54 324.52 77.05 347.49 77.05"/><polyline class="cls-2" points="342.07 36.28 366 36.28 349.25 73.18 324.52 73.18"/></svg>