<svg id="Layer_1" data-name="Layer 1" xmlns="http://www.w3.org/2000/svg" viewBox="0 0 557.45 210.64"><defs><style>.cls-1{fill:#ebebeb;}.cls-2,.cls-3{fill:#ef305e;}.cls-3{opacity:0.5;}</style></defs><path class="cls-1" d="M47.32,166.78v13.1a.89.89,0,0,1-1,1h-4.5a25.34,25.34,0,0,1-4,11.6,30.88,30.88,0,0,1-9.3,8.45,130.27,130.27,0,0,1-16.85,8.35l-4.5-12.7q8.9-3.81,13.25-6.2a19.33,19.33,0,0,0,5.95-4.5,8.06,8.06,0,0,0,1.6-5h-6.5a22.77,22.77,0,0,1-11-2.7,20.8,20.8,0,0,1-7.95-7.45A19.76,19.76,0,0,1-.48,160.08a21.21,21.21,0,0,1,3-11,22,22,0,0,1,8-8,21.21,21.21,0,0,1,11-2.95A19.84,19.84,0,0,1,32,141.13a20.63,20.63,0,0,1,7.5,8,22.77,22.77,0,0,1,2.7,11v5.7h4.1A.89.89,0,0,1,47.32,166.78ZM27.92,160a6.59,6.59,0,0,0-1.85-4.8,6.23,6.23,0,0,0-4.65-1.9,6.65,6.65,0,0,0-4.85,1.9,6.88,6.88,0,0,0,0,9.6,6.69,6.69,0,0,0,4.85,1.9h6.5Z" transform="translate(0.48 0.1)"/><path class="cls-1" d="M46.32,165.78h6.5a4.39,4.39,0,0,0,3.3-1.35,4.67,4.67,0,0,0,1.3-3.35v-17.5h14.4v17.5a4.63,4.63,0,0,0,1.3,3.35,4.36,4.36,0,0,0,3.3,1.35h6.5a.89.89,0,0,1,1,1v13.1a.89.89,0,0,1-1,1h-6.5q-7.41,0-11.8-4.9a15.49,15.49,0,0,1-11.8,4.9h-6.5a.89.89,0,0,1-1-1v-13.1A.88.88,0,0,1,46.32,165.78Zm2.8,23.7h12.8v12.8H49.12Zm18,0H80v12.8H67.12Z" transform="translate(0.48 0.1)"/><path class="cls-1" d="M81.92,179.88v-13.1a.88.88,0,0,1,1-1h5.4a4.38,4.38,0,0,0,3.25-1.4,4.62,4.62,0,0,0,1.35-3.3v-20.5h14.3V162a18.95,18.95,0,0,1-9.3,16.35,18.3,18.3,0,0,1-9.5,2.55h-5.5A.89.89,0,0,1,81.92,179.88Zm11.3-60.7H106v12.9H93.22Z" transform="translate(0.48 0.1)"/><path class="cls-1" d="M144.32,177.48a25.36,25.36,0,0,1-9.2-9.2,24.64,24.64,0,0,1-3.4-12.7v-12h14.4v11.2a10.64,10.64,0,0,0,3.2,7.75,10.44,10.44,0,0,0,7.7,3.25h31.8a6.27,6.27,0,0,0,4.75-1.95,6.79,6.79,0,0,0,1.85-4.85v-15.4h14.4V159a22.5,22.5,0,0,1-2.75,11,21.2,21.2,0,0,1-7.55,8,20.1,20.1,0,0,1-10.7,2.95H157A24.71,24.71,0,0,1,144.32,177.48Zm35.4,24.7h-12.8v-12.8h12.8Z" transform="translate(0.48 0.1)"/><path class="cls-1" d="M226.72,178.33c-2.87-1.7-7.05-10.43-8.72-13.33s-.58.38-.58-3v-48.5h14.39v47.6a4.64,4.64,0,0,0,1.31,3.35,4.25,4.25,0,0,0,3.19,1.35h5.5a.88.88,0,0,1,1,1v13.1a.89.89,0,0,1-1,1h-5.59A18.25,18.25,0,0,1,226.72,178.33Z" transform="translate(0.48 0.1)"/><path class="cls-1" d="M240.52,119.18h12.89v12.9H240.52Zm.29,60.7v-13.1a.89.89,0,0,1,1-1h10.8a4.34,4.34,0,0,0,3.25-1.4,4.59,4.59,0,0,0,1.36-3.3v-20.5h14.3V162a18.95,18.95,0,0,1-9.3,16.35,18.3,18.3,0,0,1-9.5,2.55H241.81A.89.89,0,0,1,240.81,179.88Zm17.8-60.7h12.81v12.9H258.61Z" transform="translate(0.48 0.1)"/><path class="cls-2" d="M556,97.18" transform="translate(0.48 0.1)"/><path class="cls-2" d="M556,97.18" transform="translate(0.48 0.1)"/><path class="cls-2" d="M556.71,194.45" transform="translate(0.48 0.1)"/><polyline class="cls-2" points="476.51 0 438.21 0 357.79 210.64 393.02 210.64"/><polyline class="cls-2" points="534.98 46.45 504.34 46.45 525.79 93.68 557.45 93.68"/><polyline class="cls-2" points="483.16 209.53 513.58 209.53 556.16 97.53 526.76 97.53"/><polyline class="cls-3" points="447.82 133.65 430.7 156.02 479.67 208.31 491.56 177.77"/><polyline class="cls-2" points="384.84 210.64 354.43 210.64 311.84 98.64 341.25 98.64"/><polyline class="cls-2" points="334.31 46.45 364.95 46.45 343.5 93.68 311.84 93.68"/></svg>